<?xml version="1.0" encoding="UTF-8"?> <svg xmlns="http://www.w3.org/2000/svg" width="91" height="91" viewBox="0 0 91 91" fill="none"> <circle opacity="0.12" cx="45.5" cy="45.5" r="45" fill="#C4C4C4" fill-opacity="0.12" stroke="url(#paint0_linear)"></circle> <path d="M40.9109 49.4311L40.2823 58.0862C41.1816 58.0862 41.5712 57.708 42.0383 57.2539L46.2548 53.3092L54.9918 59.5727C56.5942 60.4469 57.7231 59.9865 58.1554 58.1296L63.8904 31.8232L63.8919 31.8216C64.4002 29.5028 63.0353 28.5961 61.4741 29.1649L27.7642 41.7989C25.4635 42.6731 25.4984 43.9286 27.3731 44.4974L35.9914 47.1216L56.0099 34.8596C56.952 34.2489 57.8086 34.5868 57.104 35.1975L40.9109 49.4311Z" fill="url(#paint1_linear)"></path> <defs> <linearGradient id="paint0_linear" x1="45.5" y1="1" x2="45.5" y2="90" gradientUnits="userSpaceOnUse"> <stop stop-color="#21D4FD"></stop> <stop offset="1" stop-color="#21D4FD" stop-opacity="0"></stop> </linearGradient> <linearGradient id="paint1_linear" x1="64" y1="29.1485" x2="30.9962" y2="70.0925" gradientUnits="userSpaceOnUse"> <stop stop-color="#21D4FD"></stop> <stop offset="1" stop-color="#21D4FD" stop-opacity="0"></stop> </linearGradient> </defs> </svg> 