<?xml version="1.0" encoding="UTF-8"?> <svg xmlns="http://www.w3.org/2000/svg" width="91" height="91" viewBox="0 0 91 91" fill="none"> <circle opacity="0.12" cx="45.5" cy="45.5" r="45" fill="#C4C4C4" fill-opacity="0.12" stroke="url(#paint0_linear)"></circle> <path d="M66 32.7513C64.5497 33.3875 63.0043 33.8092 61.3931 34.0139C63.0506 33.0243 64.3157 31.4692 64.9104 29.5947C63.3651 30.5161 61.6588 31.1669 59.8404 31.5301C58.3731 29.9677 56.2817 29 54.0002 29C49.5737 29 46.0101 32.5929 46.0101 36.9974C46.0101 37.6312 46.0637 38.2406 46.1953 38.8207C39.5483 38.4965 33.6666 35.3107 29.7154 30.4576C29.0256 31.6544 28.6209 33.0243 28.6209 34.499C28.6209 37.268 30.0469 39.7226 32.1724 41.1436C30.8878 41.1192 29.6276 40.7463 28.56 40.1589C28.56 40.1833 28.56 40.2149 28.56 40.2466C28.56 44.132 31.3314 47.3592 34.9657 48.1027C34.3149 48.2806 33.6056 48.3659 32.8695 48.3659C32.3576 48.3659 31.8409 48.3367 31.3558 48.2294C32.3917 51.3957 35.3314 53.7236 38.8268 53.7991C36.1065 55.9271 32.6526 57.2092 28.9134 57.2092C28.2578 57.2092 27.6289 57.1799 27 57.0995C30.5417 59.3834 34.7391 60.6875 39.2655 60.6875C53.9782 60.6875 62.022 48.5 62.022 37.9359C62.022 37.5824 62.0098 37.2412 61.9927 36.9024C63.5796 35.7763 64.9129 34.3698 66 32.7513Z" fill="url(#paint1_linear)"></path> <defs> <linearGradient id="paint0_linear" x1="45.5" y1="1" x2="45.5" y2="90" gradientUnits="userSpaceOnUse"> <stop stop-color="#21D4FD"></stop> <stop offset="1" stop-color="#21D4FD" stop-opacity="0"></stop> </linearGradient> <linearGradient id="paint1_linear" x1="66" y1="29.1518" x2="32.2935" y2="71.1369" gradientUnits="userSpaceOnUse"> <stop stop-color="#21D4FD"></stop> <stop offset="1" stop-color="#21D4FD" stop-opacity="0"></stop> </linearGradient> </defs> </svg> 